<?xml version="1.0" encoding="utf-8"?>
<!-- Generator: Adobe Illustrator 19.1.0, SVG Export Plug-In . SVG Version: 6.00 Build 0)  -->
<svg version="1.1" id="Layer_1" xmlns="http://www.w3.org/2000/svg" xmlns:xlink="http://www.w3.org/1999/xlink" x="0px" y="0px"
	 viewBox="0 0 1000 1000" style="enable-background:new 0 0 1000 1000;" xml:space="preserve">
<style type="text/css">
	.st0{fill:#8EBDE3;}
	.st1{fill:#706966;}
	.st2{fill:#FFFFFF;}
	.st3{fill:#C9C9C9;}
	.st4{fill:#E2D2CA;}
	.st5{fill:#CCBDB7;}
	.st6{fill:#FAA958;}
	.st7{fill:#B59074;}
	.st8{fill:#D44140;}
	.st9{fill:#EAD8CF;}
	.st10{fill:#DB9C5C;}
	.st11{fill:#434874;}
	.st12{fill:#2A2D47;}
	.st13{fill:#EFA986;}
	.st14{fill:#3B4048;}
	.st15{fill:#333757;}
	.st16{fill:#918783;}
	.st17{fill:#5F5955;}
	.st18{fill:#BFB3AD;}
	.st19{fill:#264480;}
	.st20{fill:url(#SVGID_1_);}
	.st21{fill:#F6F7FB;}
	.st22{fill:#FFC657;}
	.st23{fill:#DFE1E8;}
	.st24{fill:#37582B;}
	.st25{fill:#47623D;}
	.st26{fill:#935F2E;}
	.st27{fill:#4A763A;}
	.st28{fill:#548742;}
	.st29{fill:#877670;}
	.st30{fill:#876556;}
	.st31{fill:#725447;}
	.st32{fill:#9E643A;}
	.st33{fill:#97A33B;}
	.st34{fill:#835330;}
	.st35{fill:#C77C47;}
</style>
<g>
	<g>
		<path class="st0" d="M592.5,418.4L81.5,421c-21.3,0.1-38.6-17-38.7-38.3L41,46.3c-0.1-21.3,17-38.6,38.3-38.7L590.4,5
			c21.3-0.1,38.6,17,38.7,38.3l1.7,336.4C630.9,401,613.8,418.3,592.5,418.4z"/>
		
			<rect x="264.2" y="0.4" transform="matrix(1 -5.144594e-003 5.144594e-003 1 -8.075535e-002 1.7284)" class="st1" width="143.4" height="32.4"/>
		<g>
			<g>
				<path class="st2" d="M192.7,87.9c0,0,0.2,94-10,131.6l-22.1,14l-78.2,0.4C97,194.3,96.8,88.4,96.8,88.4L192.7,87.9z"/>
				<polygon class="st3" points="160.5,233.5 160.4,219.3 182.6,219.2 				"/>
			</g>
		</g>
		<g>
			<g>
				<path class="st2" d="M287.2,64.8c0,0,0.1,65-6.9,91.1l-15.3,9.7l-54.1,0.3c10.1-27.4,10-100.7,10-100.7L287.2,64.8z"/>
				<polygon class="st3" points="264.9,165.5 264.9,155.7 280.2,155.6 				"/>
			</g>
		</g>
		<g>
			<g>
				<path class="st2" d="M283.7,206.2c0,0,0.1,47.9-5.9,67.2l-12.8,7.1l-45.4,0.2c8.5-20.2,8.4-74.2,8.4-74.2L283.7,206.2z"/>
				<polygon class="st3" points="265,280.5 265,273.3 277.9,273.2 				"/>
			</g>
		</g>
		<g>
			<g>
				<rect x="86" y="317.6" class="st2" width="136.7" height="7.1"/>
			</g>
			<g>
				<rect x="86" y="366.9" class="st2" width="157.7" height="7.1"/>
			</g>
			<g>
				<rect x="86" y="342.3" class="st2" width="97.1" height="7.1"/>
			</g>
		</g>
	</g>
	<g>
		<g>
			<rect x="546" y="527.3" class="st4" width="157.4" height="9.3"/>
		</g>
		<g>
			<rect x="668.5" y="560.9" class="st1" width="13.8" height="424.9"/>
		</g>
		<g>
			<rect x="461.2" y="524.6" class="st5" width="109.4" height="13.3"/>
		</g>
		<g>
			<rect x="495.2" y="410.8" class="st6" width="41.4" height="125.8"/>
		</g>
		<g>
			<rect x="153.7" y="536.8" class="st7" width="606.1" height="24.2"/>
		</g>
		<g>
			<path class="st8" d="M876.1,390.5c0,0,6.6,93-11.5,104.1c-11.4,7-56.7,30.5-55.4,34.9c1.3,4.4,25.6,39.2,25.6,39.2
				s87.1-57.4,90-75.5c2.7-17.7-4.3-136.1-16.3-141.6c-9-4.1-13.7-0.7-25,7.7C867.6,371.2,876.1,390.5,876.1,390.5z"/>
		</g>
		<g>
			<g>
				<g>
					<path class="st9" d="M717.3,417.1l-7.7-2.8c0,0,9.6-22.5,13.8-21.9c4.8,0.6,10.8,2.2,10.8,2.2L717.3,417.1z"/>
				</g>
			</g>
		</g>
		<g>
			<g>
				<g>
					<path class="st10" d="M715.6,421c1-0.7,16.3-30.2,16.3-30.2l32.8,4.5L747,430.1L715.6,421z"/>
				</g>
			</g>
		</g>
		<g>
			<g>
				<g>
					<path class="st11" d="M768.9,927.8c0,0,2.7,18.8,3,21.6c0.3,2.8,30.1-1.7,30.1-1.7l2.4-22.4
						C804.5,925.3,772.7,925.1,768.9,927.8z"/>
				</g>
			</g>
		</g>
		<g>
			<g>
				<g>
					<path class="st12" d="M771.7,947c0,0-9.4,11.3-18.6,16.3c-9.1,4.9-23.5,6.9-28.9,12c-3.9,3.7-14.2,19.6,23.7,19.3
						c37.9-0.3,56.2,2.2,60.3-3.8c4.1-6.1-5.9-45-5.9-45S793.4,949,771.7,947z"/>
				</g>
			</g>
		</g>
		<g>
			<g>
				<g>
					<path class="st11" d="M578,927.9c0,0,2.7,18.8,3,21.6c0.3,2.8,30.1-1.7,30.1-1.7l2.4-22.4C613.6,925.5,581.7,925.3,578,927.9z"
						/>
				</g>
			</g>
		</g>
		<g>
			<g>
				<g>
					<path class="st12" d="M580.7,947.2c0,0-9.4,11.3-18.6,16.3c-9.1,4.9-42.7,9-48.1,14.1c-3.9,3.7-10.4,18.6,43,17.2
						c37.9-1,56.2,2.2,60.3-3.8c4.1-6.1-5.9-45-5.9-45S602.9,949.4,580.7,947.2z"/>
				</g>
			</g>
		</g>
		<g>
			<g>
				<g>
					<path class="st12" d="M865.1,602.8c0,0-108.4,18.3-132.8,22.2c-24.5,3.8-157.2,36.9-173.8,46.9c-13.2,8,6.9,200.4,11.6,273.8
						h52.3l3.8-220.2c62.7,1.6,107.5-14.7,153.2-7.7c45.7,6.9,83.8,16.8,112.8-22.1C892.1,695.7,893.2,611.3,865.1,602.8z"/>
				</g>
			</g>
		</g>
		<g>
			<g>
				<g>
					<path class="st12" d="M758.3,945.9l50.9-3.1l5-217.2c27,0.7,36.3-1,58.1-3.7l41.1-95.6c-36,7.2-151.5,36.3-166.9,45.7
						C733.3,680,753.6,872.5,758.3,945.9z"/>
				</g>
			</g>
		</g>
		<g>
			<g>
				<g>
					<path class="st13" d="M815.2,196.6c0,0-39.7-11-54.9,19.9c-15.2,30.8-8.3,89.3,11.7,94.8c20,5.5,48.8-0.8,57.1-20
						c8.3-19.2,14.9-46.5,13-64.1C840.1,209.5,825.7,200.9,815.2,196.6z"/>
				</g>
			</g>
		</g>
		<g>
			<g>
				<g>
					<path class="st13" d="M782.4,305.1c0,0,0.4,23.5-2.1,28.5c-2.6,5,55.3,3.7,55.3,3.7s-9.1-28.2-3.9-52.2
						C836.8,261.4,782.4,305.1,782.4,305.1z"/>
				</g>
			</g>
		</g>
		<g>
			<g>
				<g>
					<path class="st14" d="M834.8,276.3c0,0-3.1,6.3-18.1,5.3c-15-1-34.8-19.1-41.1-20.7c-6.4-1.6-6.7-5.2-6.7-5.2l-3.4,6l-6.5,1
						c0,0,4.4-18.1-5.2-24.5c-9.7-6.4,4.3-57.8,53.2-45.4c0,0,37.3,6.8,37.8,27.7C845.2,241.2,842,265.3,834.8,276.3z"/>
				</g>
			</g>
		</g>
		<g>
			<g>
				<g>
					<path class="st4" d="M777.2,333c0,0,0.2-9.6,4.5-10.5c4.3-0.9,45.5-6.6,50.8-4.5l2.3,12.6C834.8,330.7,824.6,337,777.2,333z"/>
				</g>
			</g>
		</g>
		<g>
			<g>
				<g>
					<path class="st13" d="M765.3,251.4c1.1-7.8,10-16.8,15.1-4.6c5.1,12.2-3.4,30-9.2,29C765.5,274.8,763.8,262,765.3,251.4z"/>
				</g>
			</g>
		</g>
		<g>
			<g>
				<g>
					<path class="st15" d="M604.7,445.9C604.7,445.9,604.8,445.9,604.7,445.9C604.5,446,604.5,446,604.7,445.9z"/>
				</g>
			</g>
		</g>
		<g>
			<g>
				<g>
					<path class="st14" d="M826.8,202.2c0,0,48.4-2.3,8.5,73.3L826.8,202.2z"/>
				</g>
			</g>
		</g>
		<g>
			<g>
				<polygon class="st16" points="934.7,971.7 931.1,981.8 778.8,934.6 786.1,914.1 				"/>
			</g>
		</g>
		<g>
			<g>
				<rect x="773.6" y="761.9" class="st16" width="17.3" height="165.5"/>
			</g>
		</g>
		<g>
			<g>
				<rect x="731.2" y="753.1" class="st17" width="102.1" height="9.8"/>
			</g>
		</g>
		<g>
			<g>
				<polygon class="st16" points="628.5,971.7 632.1,981.8 784.4,934.6 777.7,912.8 				"/>
			</g>
		</g>
		<g>
			<g>
				<polygon class="st16" points="735.8,980.7 735.8,992.5 784.4,934.6 777.7,912.8 				"/>
			</g>
		</g>
		<g>
			<g>
				<circle class="st18" cx="628.5" cy="985.8" r="14.2"/>
			</g>
		</g>
		<g>
			<g>
				<circle class="st18" cx="748.8" cy="985.8" r="14.2"/>
			</g>
		</g>
		<g>
			<g>
				<circle class="st18" cx="934.7" cy="985.8" r="14.2"/>
			</g>
		</g>
		<g>
			<path class="st19" d="M674.2,753.1H889c7.4,0,13.5-6,13.5-13.5v-10c0-7.4-6-13.5-13.5-13.5H674.2c-7.4,0-13.5,6-13.5,13.5v10
				C660.7,747.1,666.7,753.1,674.2,753.1z"/>
		</g>
		<g>
			<rect x="231.3" y="560.9" class="st1" width="13.8" height="424.9"/>
		</g>
		<g>
			<linearGradient id="SVGID_1_" gradientUnits="userSpaceOnUse" x1="337.0764" y1="345.2155" x2="694.7767" y2="345.2155">
				<stop  offset="0" style="stop-color:#F89E59"/>
				<stop  offset="1" style="stop-color:#FFD256"/>
			</linearGradient>
			<path class="st20" d="M350.5,471.4h330.8c7.4,0,13.4-6,13.4-13.4V232.5c0-7.4-6-13.4-13.4-13.4H350.5c-7.4,0-13.4,6-13.4,13.4
				v225.5C337.1,465.4,343.1,471.4,350.5,471.4z"/>
		</g>
		<g>
			<rect x="351.1" y="232.7" class="st21" width="329.7" height="199.2"/>
		</g>
		<g>
			<path class="st22" d="M441.9,537.1v-4.5c0,0,6.3-27.9,51-27.9c44.7,0,43.8,32.4,43.8,32.4H441.9z"/>
		</g>
		<g>
			<g>
				<path class="st13" d="M537.1,508.8c0,0-9.7-0.8-13.3-2.9c-3.6-2.1-24.8-16.4-29.8-14.2c-5,2.3-38.2,12.5-37.1,17.3
					c1.2,4.9,4.2,4.4,6.6,3.5c2.3-0.9,26.5-5.9,28.6-5.1c0,0-23.7,8.6-23.8,15c-0.1,6.3,5,7.8,7.2,10.2c2.2,2.4,4.9,8.3,11.1,8.8
					c6.1,0.5,35.9-9.9,42.1-10.4c6.1-0.5,17.5,0.4,18.3-0.6C547.7,529.5,537.1,508.8,537.1,508.8z"/>
			</g>
		</g>
		<g>
			<g>
				<g>
					<path class="st8" d="M713.7,346.2c30.9-5.4,63.5-13.2,63.5-13.2l57.6-2.3c0,0,52.9,11.6,73.7,21c2,0.9,2,47.2,7.4,59.3
						l-17.3,36.4c0,0-10,72.1-12,104.2c-1,14.7,2.7,142.3,2.7,142.3s-5.2,2.6-44.5,6.9c-39.3,4.3-137.5-1.6-138.2-6.2
						c-0.6-4.6,19-172.9,19.9-181.6c1.3-13.4-3.9-75.2-3.9-75.2c-7.4,9.9-26.3,54.9-46,76.3c-11.6,12.6-68.9,20.3-79.7,20.6
						c-23.5,0.8-66.4,5.5-67.7,3.2c-1-1.4-3.7-38.1-1-39c2.4-0.8,82-5.4,102.5-16.2c7.5-4,29.8-52.6,29.8-52.6
						S696.7,353.9,713.7,346.2z"/>
				</g>
			</g>
		</g>
		<g>
			<path class="st19" d="M818.1,690.3h115c14.3,0,25.9-11.6,25.9-25.9V485.2c0-14.3-11.6-25.9-25.9-25.9h-115
				c-14.3,0-25.9,11.6-25.9,25.9v179.2C792.2,678.7,803.8,690.3,818.1,690.3z"/>
		</g>
		<g>
			<path class="st19" d="M821.8,743.9c24.6,0,44.5-8.3,59.3-24.5c33.3-36.8,27.3-101.5,27.1-104.2c-0.5-5.1-5.1-8.8-10.1-8.3
				c-5.1,0.5-8.8,5-8.3,10.1c0.1,0.7,5.4,59.4-22.4,90c-11.2,12.4-26.1,18.4-45.5,18.4c-5.1,0-9.3,4.2-9.3,9.3
				C812.5,739.8,816.7,743.9,821.8,743.9z"/>
		</g>
		<g>
			<g>
				<g>
					<path class="st23" d="M562.7,259.1h92.7c1.1,0,1.9-0.9,1.9-1.9v-6.7c0-1.1-0.9-1.9-1.9-1.9h-92.7c-1.1,0-1.9,0.9-1.9,1.9v6.7
						C560.8,258.2,561.7,259.1,562.7,259.1z"/>
				</g>
			</g>
		</g>
		<g>
			<g>
				<g>
					<path class="st23" d="M562.7,281.6h92.7c1.1,0,1.9-0.9,1.9-1.9V273c0-1.1-0.9-1.9-1.9-1.9h-92.7c-1.1,0-1.9,0.9-1.9,1.9v6.7
						C560.8,280.8,561.7,281.6,562.7,281.6z"/>
				</g>
			</g>
		</g>
		<g>
			<g>
				<g>
					<path class="st23" d="M567.3,416h83.6c3.6,0,6.5-2.9,6.5-6.5v-106c0-3.6-2.9-6.5-6.5-6.5h-83.6c-3.6,0-6.5,2.9-6.5,6.5v106
						C560.8,413.1,563.7,416,567.3,416z"/>
				</g>
			</g>
		</g>
		<g>
			<g>
				<g>
					<path class="st23" d="M379.6,416h151.5c5.7,0,10.3-4.6,10.3-10.3V258.8c0-5.7-4.6-10.3-10.3-10.3H379.6
						c-5.7,0-10.3,4.6-10.3,10.3v146.9C369.3,411.4,373.9,416,379.6,416z"/>
				</g>
			</g>
		</g>
	</g>
	<g>
		<path class="st24" d="M228.1,402.4c21.6,0,39-17.5,39-39c0-5.8-1.3-11.3-3.6-16.3c-6.2-13.4-19.7-22.7-35.5-22.7
			c-21.6,0-39,17.5-39,39c0,7.4,2.1,14.3,5.6,20.2C201.6,394.9,214,402.4,228.1,402.4z"/>
		<path class="st25" d="M267.7,398.9c15.1,0,27.3-12.2,27.3-27.3c0-0.9,0-1.7-0.1-2.6c-1.3-13.9-13-24.7-27.2-24.7
			c-15.1,0-27.3,12.2-27.3,27.3c0,9.6,4.9,18,12.4,22.9C257.1,397.3,262.2,398.9,267.7,398.9z"/>
		<path class="st26" d="M227.5,365.5c0,0-2.2,18.1-2.9,42.8c-0.7,24.6,18.8,24.6,18.8,24.6v90.3H257c0,0-0.3-92.1,6.4-99.5
			c6.8-7.4,6.8-42.5,6.8-42.5l-3.9-2.3c0,0,5.8,41.6-20.6,47.7c-26.4,6.1-16.4-59.3-16.4-59.3L227.5,365.5z"/>
		<path class="st27" d="M218.4,369.7c22.4-4.2,37.2-13.9,45.1-22.6c-6.2-13.4-19.7-22.7-35.5-22.7c-21.6,0-39,17.5-39,39
			c0,7.4,2.1,14.3,5.6,20.2C195.8,378.3,201.6,372.8,218.4,369.7z"/>
		<path class="st28" d="M275.7,379.1c9.1-2.6,15.2-6.2,19.2-10.1c-1.3-13.9-13-24.7-27.2-24.7c-15.1,0-27.3,12.2-27.3,27.3
			c0,9.6,4.9,18,12.4,22.9C255.6,389.2,261.8,383.1,275.7,379.1z"/>
		<polygon class="st29" points="291.1,481.2 199.3,481.2 204,498.2 285.4,498.2 		"/>
		<polygon class="st30" points="279.6,498.2 211.5,498.2 220.9,536.8 273,536.8 		"/>
		<path class="st28" d="M270.2,347.7l2.4,0.7c0,0,3.7-10.1,3.9-11.4C276.8,335.7,270.2,347.7,270.2,347.7z"/>
		<path class="st28" d="M292.5,348.5l-11.7,3.5c0,0,0.1,1,1.6,1C283.9,353.1,292.5,348.5,292.5,348.5z"/>
		<path class="st28" d="M288.4,373h-3c0,0,0.6,4.4,3,7.3C290.9,383,288.4,373,288.4,373z"/>
		<path class="st27" d="M216.8,317c-1.2,0.9,4.3,14.3,4.3,14.3h2.7C223.8,331.3,218,316.2,216.8,317z"/>
		<path class="st27" d="M229.5,328c0.5-3.6-2.3-9.7-2.3-9.7v9.2C227.1,327.4,229,331.6,229.5,328z"/>
		<path class="st27" d="M207.9,380.7c1.7-1.4,1.8-13.5,1.8-13.5l-2.7,1C207,368.1,206.2,382.1,207.9,380.7z"/>
		<path class="st31" d="M257,498.2h-45.6l9.5,38.6h14.9C227.4,505.8,257,498.2,257,498.2z"/>
	</g>
	<g>
		<path class="st32" d="M223.3,536.8c3.7-1.6,9.8-19.2,12.7-28.4c1-3.2,1.7-5.4,1.7-5.4h-34.2c3,21.1,10.1,33.8,10.1,33.8H223.3z"/>
		<path class="st33" d="M226.1,492.5c0-1.2,5.5-6.4,8.2-9.7c2.7-3.4-1.1-9.7-1.1-9.7c-12.2,5.1-10.1,19.5-10.1,19.5
			S226.1,493.7,226.1,492.5z"/>
		<path class="st33" d="M219.1,493h1.5c0,0,1.1-24.9-8-28.2c-9.1-3.4-9.1-10.1-9.1-10.1s-2.7,9.3,1.7,14.1
			c4.4,4.9,9.5,10.6,8.7,15.2C213,488.7,219.1,493,219.1,493z"/>
		<path class="st34" d="M236,508.4c1-3.2,1.7-5.4,1.7-5.4h-34.2c3,21.1,10.1,33.8,10.1,33.8h2.2C215.4,517,228.4,510.5,236,508.4z"
			/>
		<polygon class="st35" points="237.7,492.5 203.2,492.5 201.3,503 239.1,503 		"/>
	</g>
</g>
</svg>
