<?xml version="1.0" encoding="utf-8"?>
<!-- Generator: Adobe Illustrator 19.1.0, SVG Export Plug-In . SVG Version: 6.00 Build 0)  -->
<svg version="1.1" id="Layer_1" xmlns="http://www.w3.org/2000/svg" xmlns:xlink="http://www.w3.org/1999/xlink" x="0px" y="0px"
	 viewBox="0 0 1000 1000" style="enable-background:new 0 0 1000 1000;" xml:space="preserve">
<style type="text/css">
	.st0{fill:url(#SVGID_1_);}
	.st1{fill:url(#SVGID_2_);}
	.st2{fill:url(#SVGID_3_);}
	.st3{fill:url(#SVGID_4_);}
	.st4{fill:url(#SVGID_5_);}
	.st5{fill:#FFFFFF;}
	.st6{fill:url(#SVGID_6_);}
	.st7{fill:url(#SVGID_7_);}
	.st8{fill:#CFC9A4;}
	.st9{fill:#706966;}
	.st10{fill:#719E40;}
	.st11{fill:#445D2B;}
	.st12{fill:#C9C9C9;}
	.st13{fill:#5B9ED6;}
	.st14{fill:#41729A;}
	.st15{fill:#262740;}
	.st16{fill:#EFA986;}
	.st17{fill:#40456F;}
	.st18{fill:#EDDAD3;}
	.st19{fill:#B9AAA4;}
	.st20{fill:#D44140;}
	.st21{fill:#EEA987;}
	.st22{fill:#A77861;}
	.st23{fill:#CFCBBA;}
</style>
<g>
	<g>
		<g>
			
				<linearGradient id="SVGID_1_" gradientUnits="userSpaceOnUse" x1="-4916.7407" y1="711.2187" x2="-4824.562" y2="711.2187" gradientTransform="matrix(-1 0 0 1 -4471.543 0)">
				<stop  offset="0" style="stop-color:#3376A1"/>
				<stop  offset="1" style="stop-color:#639D42"/>
			</linearGradient>
			<path class="st0" d="M355.1,884.7c21.4-15.1,46.5-120,48-182.6c0.8-32,10.2-45.4,18.6-57.1c8-11.3,14.9-21,10.9-43.3
				c-7.7-42.6,12.5-61.1,12.7-61.2l-2.3-2.7c-0.9,0.8-21.9,19.8-13.9,64.5c3.8,20.9-2.4,29.6-10.3,40.6c-8.2,11.6-18.4,26-19.2,59.1
				c-1.6,67.1-27.2,166.2-46.5,179.7L355.1,884.7z"/>
		</g>
		<g>
			
				<linearGradient id="SVGID_2_" gradientUnits="userSpaceOnUse" x1="-4845.1211" y1="787.3088" x2="-4677.5425" y2="787.3088" gradientTransform="matrix(-1 0 0 1 -4471.543 0)">
				<stop  offset="0" style="stop-color:#3376A1"/>
				<stop  offset="1" style="stop-color:#639D42"/>
			</linearGradient>
			<path class="st1" d="M310.2,854c-2-4.6-4.1-9.3-6.5-14.3c-12.2-25.8-23.1-30.1-41-37.1c-4.4-1.7-9.4-3.7-14.8-6.1
				c-25.7-11.6-20.7-28.6-16.3-43.6c0.6-2.1,1.2-4.2,1.8-6.3c2.3-8.8-2.1-13.3-8.7-20c-4.9-5-11-11.2-15.7-21
				c-5.1-10.7-2.5-16.5,0.6-19.4c6.5-6.2,21.6-5,35.8,2.7c4.4,2.4,8,6.2,11.9,10.2c9.1,9.5,20.3,21.3,48.8,21.4
				c16.3,0.1,25.2,2.3,29.8,7.5c5.2,5.9,4.2,14.7,2.9,26.9c-0.5,4.2-1,9-1.3,14.1c-1.9,30.8,16.2,53,16.4,53.2
				c10.9,12.9,24.2,39.8,18.5,56.3c-2.4,6.9-7.8,11.3-16.1,12.9c-3.3,0.7-6.3,1-9.1,1C327.1,892.4,319.8,875.9,310.2,854z
				 M243.6,692c-12.7-6.9-26.3-8.3-31.6-3.2c-4.1,3.9-2.1,10.5,0.2,15.3c4.4,9.3,10.1,15,15,20.1c6.9,7,12.3,12.6,9.6,23.3
				c-0.5,2.1-1.2,4.2-1.8,6.4c-4.4,15-8.5,29.1,14.4,39.4c5.4,2.4,10.3,4.4,14.7,6.1c18.1,7.1,30.1,11.8,42.9,38.9
				c2.4,5,4.5,9.8,6.5,14.4c11.1,25.1,17.8,40.3,42,35.4c6.9-1.4,11.5-5,13.4-10.6c5.1-14.6-7.1-40-17.8-52.8
				c-0.8-0.9-19.3-23.5-17.2-55.7c0.3-5.2,0.9-10.1,1.3-14.3c1.3-11.3,2.2-19.4-2-24.1c-3.8-4.3-12.2-6.2-27.1-6.3
				c-30-0.1-41.9-12.5-51.4-22.5C250.8,697.6,247.5,694.1,243.6,692L243.6,692z"/>
		</g>
		<g>
			
				<linearGradient id="SVGID_3_" gradientUnits="userSpaceOnUse" x1="-4830.7959" y1="811.6771" x2="-4705.0166" y2="811.6771" gradientTransform="matrix(-1 0 0 1 -4471.543 0)">
				<stop  offset="0" style="stop-color:#3376A1"/>
				<stop  offset="1" style="stop-color:#639D42"/>
			</linearGradient>
			<path class="st2" d="M355.7,912.9l3.5-0.2c-0.2-3.3-4.6-81.7-36.1-104.6c-34.5-25.2-45.4-52.2-50.6-70.3
				c-6.1-21.4-37.2-27.1-38.5-27.3l-0.6,3.5c0.3,0.1,30.2,5.6,35.7,24.8c5.3,18.6,16.5,46.4,51.9,72.2
				C351.2,832.9,355.7,912.1,355.7,912.9z"/>
		</g>
		<g>
			
				<linearGradient id="SVGID_4_" gradientUnits="userSpaceOnUse" x1="-4982.8364" y1="683.9065" x2="-4793.9575" y2="683.9065" gradientTransform="matrix(-1 0 0 1 -4471.543 0)">
				<stop  offset="0" style="stop-color:#3376A1"/>
				<stop  offset="1" style="stop-color:#639D42"/>
			</linearGradient>
			<path class="st3" d="M349.7,930.5c-7.4-3.7-7.1-18.5-6.7-40.9c0.5-28.3,1.2-67.2-13.6-102.9c-15.8-37.9-1.7-49,11.9-59.7
				c15.2-12,29.6-23.3,2-74.5c-12.7-23.5-16.7-39.4-12.7-50c4-10.5,15.2-14.6,27-18.9c20.5-7.5,43.6-16,40.6-59.3
				c-0.9-13.3,0.6-21.4,4.9-25.7c4.6-4.6,11.5-4.1,19.4-3.5c12,0.9,25.5,1.9,37.3-13.5c1.2-3.8,12.5-38.2,26-44
				c2.8-1.2,5.6-1.2,8.3,0l0,0c9.3,4.5,14.7,9.7,16.5,16.1c3.1,11.2-5,23.7-14.5,38.3c-14.9,22.9-31.7,48.8-14.2,79.7
				c23.1,40.8,10.9,55.1-6,74.9c-9.7,11.3-20.6,24.2-28,45.1c-5.9,16.8,4.2,32.9,13.9,48.4c12.2,19.5,24.8,39.6-1.7,57.1
				c-43.9,28.9-87.3,123.2-87.7,124.2l-0.2,0.4l-0.3,0.3c-8.1,6.3-14,9.4-18.4,9.4C352,931.3,350.8,931.1,349.7,930.5z M458.1,794.2
				c23.7-15.6,13-32.6,0.7-52.3c-9.7-15.5-20.7-33-14.2-51.5c7.6-21.6,18.7-34.7,28.6-46.2c16.6-19.4,27.5-32.2,5.6-70.8
				c-18.5-32.7-0.3-60.8,14.4-83.4c9-13.8,16.8-25.8,14.1-35.4c-1.5-5.4-6.3-9.9-14.6-13.9l0,0c-1.7-0.8-3.4-0.8-5.3,0
				c-12.5,5.5-24,41.8-24.1,42.2l-0.1,0.3l-0.2,0.2c-13,17.2-28.3,16.1-40.6,15.2c-7.3-0.5-13.1-1-16.6,2.5
				c-3.4,3.4-4.7,10.9-3.9,22.9c3.2,45.9-22.4,55.3-43,62.8c-11.5,4.2-21.5,7.9-24.9,16.9c-3.6,9.6,0.3,24.6,12.5,47.1
				c29,53.8,12.8,66.6-2.9,79c-13.1,10.4-25.5,20.1-10.8,55.6c15.1,36.4,14.4,75.6,13.9,104.3c-0.4,19.6-0.6,35,4.8,37.7
				c3.2,1.6,9.2-1.1,18-7.9C372.8,911.8,414.3,823,458.1,794.2z"/>
		</g>
		
			<linearGradient id="SVGID_5_" gradientUnits="userSpaceOnUse" x1="-4872.811" y1="711.6992" x2="-4726.3286" y2="711.6992" gradientTransform="matrix(-1 0 0 1 -4471.543 0)">
			<stop  offset="0" style="stop-color:#3376A1"/>
			<stop  offset="1" style="stop-color:#639D42"/>
		</linearGradient>
		<path class="st4" d="M280.4,519.3c22.4-7.7,17.7,35.4,27.2,67.3c9.4,31.9,105.1,13.9,64.9,93.7c-40.1,79.8,50.8,26.7,23.6,96.4
			c-27.2,69.7-2.4,144.2-31.9,125.2c-29.5-19-16.6-106.7-47.3-117.1c-30.7-10.4-35.7-22.6-5.3-50.9c30.4-28.3-79.7-56.5-52.5-113.7
			S254.6,528.2,280.4,519.3z"/>
		<g>
			<path class="st5" d="M353.9,897.4c2.8-11.9,26.8-116.9,4.4-129.6c-19.7-11.2-19.3-54.7-16.2-95.7c2.7-36.4-44-53.3-46-54.1
				l-1.2,3.3c0.5,0.2,46.1,16.8,43.6,50.4c-3.2,42.2-3.5,86.9,18,99.1c17,9.6,1.3,94-6.1,125.7L353.9,897.4z"/>
		</g>
		
			<linearGradient id="SVGID_6_" gradientUnits="userSpaceOnUse" x1="283.5847" y1="920.5695" x2="418.7542" y2="920.5695" gradientTransform="matrix(1 0 0 1 19.5338 0)">
			<stop  offset="0" style="stop-color:#F79245"/>
			<stop  offset="1" style="stop-color:#FFCF46"/>
		</linearGradient>
		<polygon class="st6" points="438.3,860 406.4,981.1 335,981.1 303.1,860 		"/>
		
			<linearGradient id="SVGID_7_" gradientUnits="userSpaceOnUse" x1="283.5847" y1="920.5695" x2="418.7542" y2="920.5695" gradientTransform="matrix(1 0 0 1 19.5338 0)">
			<stop  offset="0" style="stop-color:#C97332"/>
			<stop  offset="1" style="stop-color:#FFCF46"/>
		</linearGradient>
		<path class="st7" d="M438.3,860c0,0-70.3,13.2-70.3,121.1h-33L303.1,860H438.3z"/>
	</g>
	
		<rect x="289" y="40.2" transform="matrix(1 -5.150898e-003 5.150898e-003 1 -1.3716 3.1606)" class="st8" width="647.8" height="455.4"/>
	
		<rect x="533.9" y="33.6" transform="matrix(1 -5.154060e-003 5.154060e-003 1 -0.2571 3.1596)" class="st9" width="158" height="35.7"/>
	<g>
		<g>
			<path class="st10" d="M455.1,130.1c0,0,0.2,103.5-11.1,145l-24.3,15.4l-86.1,0.4c16.1-43.6,15.9-160.3,15.9-160.3L455.1,130.1z"
				/>
			<polygon class="st11" points="419.7,290.5 419.6,274.8 444,274.7 			"/>
		</g>
	</g>
	<g>
		<g>
			<path class="st5" d="M559.2,104.6c0,0,0.1,71.6-7.7,100.3l-16.8,10.7l-59.6,0.3c11.2-30.2,11-110.9,11-110.9L559.2,104.6z"/>
			<polygon class="st12" points="534.7,215.5 534.6,204.7 551.5,204.6 			"/>
		</g>
	</g>
	<g>
		<g>
			<path class="st10" d="M766,141.4c0,0,0.1,52.8-6.5,74l-14.1,7.9l-50,0.3c9.4-22.3,9.3-81.8,9.3-81.8L766,141.4z"/>
			<polygon class="st11" points="745.4,223.3 745.4,215.3 759.5,215.2 			"/>
		</g>
	</g>
	<g>
		<g>
			<path class="st13" d="M883.4,98.7c0,0,0.1,67.5-8.3,94.6l-18.1,10.1l-63.9,0.3c12-28.5,11.9-104.6,11.9-104.6L883.4,98.7z"/>
			<polygon class="st14" points="857.1,203.3 857,193.1 875.2,193.1 			"/>
		</g>
	</g>
	<g>
		<g>
			<path class="st5" d="M555.4,260.4c0,0,0.1,52.8-6.5,74l-14.1,7.9l-50,0.3c9.4-22.3,9.3-81.8,9.3-81.8L555.4,260.4z"/>
			<polygon class="st12" points="534.8,342.2 534.8,334.2 549,334.2 			"/>
		</g>
	</g>
	<g>
		<g>
			<path class="st10" d="M786.5,256.3c0,0,0.1,68.1-8.4,95.4l-18.2,10.2l-64.5,0.3c12.1-28.7,12-105.5,12-105.5L786.5,256.3z"/>
			<polygon class="st11" points="759.9,361.9 759.9,351.6 778.1,351.5 			"/>
		</g>
	</g>
	<rect x="585.2" y="160.2" class="st5" width="82.1" height="137.3"/>
	<g>
		<g>
			<rect x="337.6" y="393.9" class="st5" width="545.8" height="7.8"/>
		</g>
		<g>
			<rect x="337.6" y="448.2" class="st5" width="357.8" height="7.8"/>
		</g>
		<g>
			<rect x="337.6" y="421.1" class="st5" width="269.1" height="7.8"/>
		</g>
	</g>
	<g>
		<path class="st15" d="M180.7,169.3c0,0,32.6,68.7,10.2,72.8c-30.8,5.6-43.3-51.3-43.3-51.3L180.7,169.3z"/>
		<g>
			<g>
				<g>
					<path class="st16" d="M358.6,340.1c0,0,10.2-3.2,11-9.2c0.7-5.1,5.3-11.3,6.7-13.2c1.9-2.5,4.8-12.5,8-10.1
						c3.2,2.4-4,16.6-5,19.9c-0.9,3.3,13-3,16.5-2.1c3.4,0.9,12.5,24.5,2.4,27.7c-10.1,3.2-22.9,0-24.6,0.9
						c-1.7,0.9-7.2,2.6-7.2,2.6L358.6,340.1z"/>
				</g>
			</g>
		</g>
		<g>
			<g>
				<g>
					<path class="st16" d="M393.4,325.5c0,0,31.5-7.7,34-6.5c2.5,1.2,2.8,3-0.1,3.8c-2.9,0.8-30.2,8.3-30.2,8.3s38.8-2.9,41.1-2.3
						c1.3,0.3,2.2,3.6,0.6,4.2c-1.5,0.6-39.8,5.6-39.8,5.6s36.2-2.6,38-1.6c1.6,0.9,1.5,4.1-1.1,4.5c-2.7,0.4-36.1,4.7-36.1,4.7
						s26.5-0.3,27.4,1.5c0.6,1.1,1.4,3.9-5.4,3.8c-6.8-0.1-23,1.2-23,1.2L393.4,325.5z"/>
				</g>
			</g>
		</g>
		<path class="st17" d="M100.1,934.6c0,0,16.9,25.1,23.7,31.1c0,0,15.1,5.5,16.6,16.1c1.5,10.6,1.3,17.6-16.6,18.1
			c-17.9,0.5-29.6-2.7-32.9-13.5c-3.3-10.8-10.4-18.2-10.4-18.2v22.7h-4c0,0-1-21.9-1.3-26c-0.3-4-2.9-19.5,5.6-26.4
			C89.3,931.7,100.1,934.6,100.1,934.6z"/>
		<path class="st17" d="M184.6,914.5c0,0,2.9,6.9,8.4,14.1c4,5.3,16.6,27,22.2,28.5c5.5,1.5,22.7,4.5,24.2,14.1
			c1.5,9.6,2.3,16.4-14.6,17.1c-16.9,0.8-28,1.8-36-10.1c-8.1-11.8-20.9-20.4-20.9-20.4v30.9h-6.6c0,0-3-32.2-4.8-34.4
			c-1.8-2.3-6.3-27,9.3-39.8C181.5,901.7,184.6,914.5,184.6,914.5z"/>
		<path class="st16" d="M88.8,450.7c0,0-21.3,27.7-27.1,60.6c-5.8,32.9,3.4,143.2,3.2,159.5c-0.3,16.3-15.4,56.7-12.3,87.3
			c3,30.6,28.3,180.5,28.3,180.5l19.3-4c0,0-1.9-155.3,0-168.2c1.9-12.8,5.7-59.7,6.4-65c0.8-5.3,48-144.2,48-167.9
			C154.5,509.7,140.2,412,88.8,450.7z"/>
		<path class="st16" d="M195.9,461.5c0,0,35,133.7,39.2,152.2c4.2,18.5,10.2,33.8,10.2,41.7c0,18.2-6.8,47.5-6.8,47.5l-53.8,211.7
			l-22.3,3.5c0,0,12.9-130.1,13.5-155c0.6-25,19.9-60.5,16.1-71.1c-3.8-10.6-60.8-132.7-60.8-132.7S87.9,422.7,195.9,461.5z"/>
		<path class="st16" d="M123.8,965.7c0,0-17.3,9.7-28.4-2.7c-9.4-10.5-14.6-24.4-14.6-24.4l19.3-4L123.8,965.7z"/>
		<path class="st16" d="M215.2,957.1c0,0-15.1,3.8-20.9,0c-5.8-3.8-25.5-37.1-32-39.1c0,0,6.3-12.8,22.3-3.5
			C184.6,914.5,211,951.6,215.2,957.1z"/>
		<path class="st17" d="M245.2,655.3c0,0-81,34.8-201.6,34.8c0,0,5.3-157.1,22.8-196.5C84,454.3,198.7,472,198.7,472
			S245.2,622.4,245.2,655.3z"/>
		<g>
			<path class="st18" d="M181.4,234.3c0,0,14.4,1.4,25.3,13.1c10.9,11.7,21.2,30.3,24,36.6c2.9,6.2,42.9,64,45,65.3
				s19.6-3.3,33.6-4.5c22.9-1.9,57.1-13.6,57.1-13.6l5.1,25.9c0,0-84.2,27.2-103.7,22.4c-23.8-5.9-78.5-76-78.5-76
				S148.7,255.6,181.4,234.3z"/>
		</g>
		<g>
			<path class="st18" d="M156.2,224.2c0,0,18.7,8.8,25.2,10.1s31.7,34,36.1,46c4.4,11.9,0,29.9-9.1,50.9c-9.1,21-0.5,28.1-4.7,49.1
				c-4.2,21-4.2,78.4-3.4,90.1c0.8,11.7-120.3,33.7-144.4,12.4c0,0,16.4-53.9,35.7-74.2c4.2-4.4,3.7-33.6,0.9-40.8
				c-2.9-7.3-35.1-61.6-35.1-61.6s-2.4-55.1,11.7-66c12.2-9.5,45.5-12.9,51.5-14.9C126.6,223.3,144,222.4,156.2,224.2z"/>
		</g>
		<g>
			<path class="st16" d="M165.1,202.6c0,0-3.7,34.3-3,45.5c0,0-19.4,19.5-41.5-22.7c0,0,9.3-17.4,2.3-41.1
				C115.9,160.6,165.1,202.6,165.1,202.6z"/>
		</g>
		<path class="st19" d="M219.5,339c0,0,4.7-31.1-0.3-50c0,0,0,16.3-8.9,39.4L219.5,339z"/>
		<polygon class="st20" points="182,389 104.4,523.4 18.1,473.6 92.4,337.2 		"/>
		<g>
			<g>
				<g>
					<g>
						<g>
							<path class="st16" d="M143.5,478.3c0,0-3.5,0-5.1-0.7c0,0-2.7-1.6-4.7-2.6c-0.6-0.3-1.2-0.6-1.6-0.7
								c-1.6-0.5-5.2-1.3-8.7-3.7c-3.4-2.4-15.6-16.5-15.6-16.5l5.7-8.7l4.2-8.9c0,0,25.5,1.6,29,3.5c0.3,0.2,0.7,0.4,1,0.6
								c2.8,1.8,4.1,4.4,5.4,5.5c0.5,0.4,5.1,4.9,4.9,6.8c-0.2,2.7-1.5,4.4-3.1,5.3c0,0-0.7,5.2-3.2,7.6c0,0-0.5,4.8-4.5,6.9
								C147.4,472.7,146.4,477.6,143.5,478.3z"/>
						</g>
					</g>
				</g>
			</g>
		</g>
		<g>
			<path class="st18" d="M90.9,234.3c0,0-23.6-6.8-37.1,19.2c-13.5,26-13.4,37.1-15.2,49.7c-1.7,12-9.4,44.7-10.2,48.1
				c-0.8,3.4-18.2,43.6-10.2,57.7c8,14.1,89.6,55.8,89.1,58.9c-0.5,3.1,14.1-31.5,14.1-31.5s-33-18.4-38.4-24.1
				c-8.8-9.2-27.3-19.1-23.5-30.5c4.5-13.4,17.9-58.7,21-65.3C83.7,310,110.8,242.8,90.9,234.3z"/>
		</g>
		<path class="st21" d="M107.7,138.3c0,0-4.3-5.1-5.9,0c-1.6,5.2,3.6,20.6,4.2,22.8c0,0,2.6,8.7,3.6,7.5
			C110.7,167.6,107.7,138.3,107.7,138.3z"/>
		<path class="st21" d="M182.6,138.9c0,0,4.3-5.2,5.9,0c1.6,5.2-3.6,20.6-4.2,22.8c0,0-2.6,8.7-3.6,7.5
			C179.6,168.2,182.6,138.9,182.6,138.9z"/>
		<path class="st21" d="M151.9,89c0,0,39.4,6.1,33.6,68.1c-5.8,62-40.5,57.1-42.8,57c-2.3-0.1-34.9,1.3-37.7-74.4
			C105,139.7,103.7,83.7,151.9,89z"/>
		<path class="st15" d="M112.6,136c0,0,43.7,13,64.6,8.8c0,0,1.3,7.7,4.3,8.2s4.5-14.8,4.5-14.8s1-50.4-44.6-50.9
			c-45.6-0.5-36.3,54.6-36.3,54.6l0.6,9.4C105.7,151.4,112.3,154,112.6,136z"/>
		<path class="st22" d="M127.2,208.1c0,0,13.8,13.1,35,1.1c0,0-6.3,10.5-18.1,10.2C132.1,219.1,127.2,208.1,127.2,208.1z"/>
		<path class="st16" d="M105.7,228.4c0,0,13.4,39.5,50.1,36.6c36.7-2.9,17.4-33.3,17.4-33.3s-9.1-5.2-11.7-5.7
			c-2.6-0.5-40.6-1-40.6-1L105.7,228.4z"/>
	</g>
	<g>
		<polygon class="st23" points="983.9,541.1 797.4,541.1 797.4,533.3 976.1,533.3 976.1,430.6 983.9,430.6 		"/>
	</g>
	<g>
		<polygon class="st23" points="263.5,141.4 255.7,141.4 255.7,0 394.3,0 394.3,7.8 263.5,7.8 		"/>
	</g>
</g>
</svg>
