<?xml version="1.0" encoding="utf-8"?>
<!-- Generator: Adobe Illustrator 19.1.0, SVG Export Plug-In . SVG Version: 6.00 Build 0)  -->
<svg version="1.1" id="Layer_1" xmlns="http://www.w3.org/2000/svg" xmlns:xlink="http://www.w3.org/1999/xlink" x="0px" y="0px"
	 viewBox="0 0 1000 1000" style="enable-background:new 0 0 1000 1000;" xml:space="preserve">
<style type="text/css">
	.st0{fill:url(#SVGID_1_);}
	.st1{fill:url(#SVGID_2_);}
	.st2{fill:url(#SVGID_3_);}
	.st3{fill:#FAA758;}
	.st4{fill:#F9A458;}
	.st5{fill:#EFA986;}
	.st6{fill:#858585;}
	.st7{fill:#E2D2CA;}
	.st8{fill:#2A2D47;}
	.st9{fill:#1C1E30;}
	.st10{fill:#333757;}
	.st11{fill:#25263D;}
	.st12{fill:#292C45;}
	.st13{fill:#EEA987;}
	.st14{fill:#EDDAD3;}
	.st15{fill:#1F2236;}
	.st16{fill:#50568B;}
	.st17{fill:#D6C4BF;}
	.st18{fill:#17202E;}
	.st19{fill:#D44140;}
	.st20{fill:#6E6760;}
	.st21{fill:#928880;}
	.st22{fill:#706966;}
	.st23{fill:#A77861;}
	.st24{fill:#EA4748;}
	.st25{fill:#D59679;}
	.st26{fill:#141521;}
	.st27{fill:#9E643A;}
	.st28{fill:#97A33B;}
	.st29{fill:#835330;}
	.st30{fill:#C77C47;}
</style>
<g>
	<g>
		<g>
			<linearGradient id="SVGID_1_" gradientUnits="userSpaceOnUse" x1="875.8848" y1="355.1224" x2="875.8848" y2="221.8206">
				<stop  offset="0" style="stop-color:#F89E59"/>
				<stop  offset="1" style="stop-color:#FFD256"/>
			</linearGradient>
			<path class="st0" d="M944.2,229l-76.5,172.4l-2.1,4.6c-4,0.4-7.3-0.5-8.5-0.9l1.7-3.8l75.8-170.7L824.1,111.8l-16.6-3.6l1.7-8
				l19.1,4.2L944.2,229z"/>
		</g>
		
			<linearGradient id="SVGID_2_" gradientUnits="userSpaceOnUse" x1="-10684.1377" y1="419.4309" x2="-10613.21" y2="419.4309" gradientTransform="matrix(-1 0 0 1 -9786.9531 0)">
			<stop  offset="0" style="stop-color:#F89E59"/>
			<stop  offset="1" style="stop-color:#FFD256"/>
		</linearGradient>
		<path class="st1" d="M826.3,434.7h70.8c0,0-0.1-1.7-0.8-4.3c-2.1-8.4-9.9-26.2-37.5-26.2c-27.6,0-32,17.8-32.6,26.2
			C826.2,433,826.3,434.7,826.3,434.7z"/>
		
			<linearGradient id="SVGID_3_" gradientUnits="userSpaceOnUse" x1="-10608.832" y1="120.0538" x2="-10541.1631" y2="120.0538" gradientTransform="matrix(-1 0 0 1 -9786.9531 0)">
			<stop  offset="0" style="stop-color:#F89E59"/>
			<stop  offset="1" style="stop-color:#FFD256"/>
		</linearGradient>
		<path class="st2" d="M754.2,73.6l4.8,13.6l29,82.2c11.8-4.2,21.1-12.2,26.9-22.3c7.3-12.4,9.2-27.9,4-42.5
			C809.6,78.2,780.6,64.3,754.2,73.6z"/>
		<path class="st3" d="M869.5,401.4v3.8c-1.3,0.4-2.6,0.7-3.8,0.8c-4,0.4-7.3-0.5-8.5-0.9c-0.3-0.1-0.5-0.2-0.5-0.2v-3.6l2.2,0
			l8.9,0.1L869.5,401.4z"/>
		<path class="st4" d="M826.3,434.7h70.8c0,0-0.1-1.7-0.8-4.3h-70.1C826.2,433,826.3,434.7,826.3,434.7z"/>
		<path class="st3" d="M754.2,73.6l4.8,13.6c16.9,13.3,43.2,36.4,55.9,59.9c7.3-12.4,9.2-27.9,4-42.5
			C809.6,78.2,780.6,64.3,754.2,73.6z"/>
	</g>
	<g>
		<g>
			<g>
				<g>
					<path class="st5" d="M515.2,219.1c0,0,12.3-15.6,14.3-17.9c1.9-2.3,9.6-4.5,18.6-6.2c9-1.7,21.6,0.4,22.6,1.7
						c1,1.2,2.6,2,3,6.3c0.4,4.4-1.4,8.4-1.4,8.4s2.8,5,0.2,9.8c0,0,2.4,4.8-1.3,9.8c0,0,2.3,4.8-0.7,8.2c0,0-7.7,2.2-10.3,3.9
						c-2.7,1.7-18.9,5.1-34.8,5.8C525.3,248.9,510.3,243.9,515.2,219.1z"/>
				</g>
			</g>
		</g>
	</g>
	<g>
		<g>
			<polygon class="st6" points="159.1,700.7 88.8,993.9 73.3,993.9 132.9,700.1 			"/>
		</g>
	</g>
	<g>
		<g>
			<polygon class="st6" points="235.8,700.7 165.5,993.9 150,993.9 209.7,700.1 			"/>
		</g>
	</g>
	<g>
		<g>
			<polygon class="st6" points="359.9,700.7 430.2,993.9 445.7,993.9 386.1,700.1 			"/>
		</g>
	</g>
	<g>
		<g>
			<path class="st7" d="M426.5,703.6h-303c0,0-21.1-0.5-35.2-63c-15.9-70.3-48-305.2-48-305.2s8.5-21.9,141.7-19.1l238.5,309.5
				C420.5,625.8,428.6,674.5,426.5,703.6z"/>
		</g>
	</g>
	<g>
		<g>
			<path class="st5" d="M435.8,410.4c0,0,15.4-6.7,27-4c11.6,2.7,38.7,12.8,52.1,14.5c13.4,1.7,26.2,9.5,25.9,13.9
				c-0.2,4.4-103.4,8.1-103.9-2C436.4,422.7,435.8,410.4,435.8,410.4z"/>
		</g>
	</g>
	<g>
		<g>
			<g>
				<g>
					<path class="st5" d="M515.2,219.1c0,0-20.2,13.2-20.6,17.3c-0.7,6.7,3.4,27.6,3.9,27.3c0.5-0.3,30.4-15.1,30.4-15.1
						L515.2,219.1z"/>
				</g>
			</g>
		</g>
	</g>
	<g>
		<g>
			<g>
				<path class="st8" d="M514.8,944c0,0,26,15.4,37.7,21.2c11.8,5.7,57.5,7.5,62,11.8c4.5,4.3,2.8,18-4.8,19.4
					c-7.6,1.4-63.2,6.3-81.7,1.9c-18.5-4.4-53.3,2.8-60.9,0.2c-7.7-2.6-2.6-44,0.4-53.3C470.5,935.8,514.8,944,514.8,944z"/>
			</g>
		</g>
	</g>
	<g>
		<g>
			<g>
				<path class="st9" d="M514.4,926.5l0.4,17.5c0,0-34.8,6.4-47.3,1.1l0.9-19.2L514.4,926.5z"/>
			</g>
		</g>
	</g>
	<g>
		<g>
			<g>
				<path class="st10" d="M575.6,944c0,0,26,15.4,37.7,21.2c11.8,5.7,57.5,7.5,62,11.8c4.5,4.3,2.8,18-4.8,19.4
					c-7.6,1.4-63.2,6.3-81.7,1.9c-18.5-4.4-53.3,2.8-60.9,0.2c-7.7-2.6-2.6-44,0.4-53.3C531.2,935.8,575.6,944,575.6,944z"/>
			</g>
		</g>
	</g>
	<g>
		<g>
			<g>
				<path class="st9" d="M575.2,926.5l0.4,17.5c0,0-34.8,6.4-47.3,1.1l0.9-19.2L575.2,926.5z"/>
			</g>
		</g>
	</g>
	<g>
		<g>
			<polygon class="st11" points="370.9,518.5 331.4,511.6 357.7,445.3 			"/>
		</g>
	</g>
	<g>
		<g>
			<path class="st12" d="M252.5,532.1c0,0,198.5,42.1,229.5,55.3c31,13.2,49.6,18.6,51.9,25.2c2.3,6.6,50.7,321.4,50.7,321.4h-65.8
				c0,0-51.1-237.7-57.3-252.5c-6.2-14.7-251.7-15.5-269.5-33.3c-17.8-17.8-33.3-66.6-13.9-110.4
				C197.4,494.1,252.5,532.1,252.5,532.1z"/>
		</g>
	</g>
	<g>
		<g>
			<path class="st12" d="M353.1,510c0,0,227.6,64,246.3,93.3c19,29.8-75.9,330.7-75.9,330.7h-65.1c0,0,62.7-281.9,55-294.3
				c-7.7-12.4-350.8-0.4-286.9-101.8C290.3,436.4,353.1,510,353.1,510z"/>
		</g>
	</g>
	<g>
		<g>
			<path class="st10" d="M329.4,193.6c8.6-4.5,37.1,5.3,45.6,18.4c19.6,30.5,56.7,68.3,56.7,68.3l82.7-69.5l16.6,41.4L432.8,335
				c-8.4,7-20.7,6.6-28.5-1c-25.8-25-78.8-77.7-82.9-90.8C315.9,225.8,313,202.1,329.4,193.6z"/>
		</g>
	</g>
	<g>
		<g>
			<path class="st13" d="M301.4,16.7c0,0,39.5,6.6,39.9,73.6c0.4,67-25,73.3-63.5,63.5c-23.2-5.9-44.9-38.7-36.4-96.4
				C249.9-0.4,301.4,16.7,301.4,16.7z"/>
		</g>
	</g>
	<g>
		<g>
			<path class="st14" d="M306.6,176.6c0,0,54.4,19.8,62.6,32.2c8.1,12.4,2.9,123.9-1.8,163.8c-4.6,39.9-17.4,125.8-14.3,137.5
				l-126.6,27.9c0,0-40.7-147.9-41.8-171.5c-1.2-23.6-31-133.6-16.7-142.5c14.3-8.9,76.7-43.8,76.7-43.8L306.6,176.6z"/>
		</g>
	</g>
	<g>
		<g>
			<polygon class="st15" points="226.5,537.9 220.3,515 353.4,489.1 353.1,510 			"/>
		</g>
	</g>
	<g>
		<g>
			<polygon class="st16" points="292.7,499.7 324.2,493.1 324.2,518.1 292.7,525.5 			"/>
		</g>
	</g>
	<g>
		<g>
			<path class="st10" d="M278.5,434.7c-0.3,6.5-0.8,13.2-1.1,19.9l-0.1,0.1c-4.5,73.5-11.2,150.4-11.2,150.4
				c-9.2,7.7-126.5-19.5-126.5-19.5s14.4-19.6,28.3-73.9c14-54.2,3.1-106.3-11.5-194.6c-14.4-88.2-2.5-87.7-2.5-87.7l90.6-49.2
				c5.9,22.6,30,104.5,35.6,151.4C282.3,348.6,281.1,389.6,278.5,434.7z"/>
		</g>
	</g>
	<g>
		<g>
			<path class="st10" d="M307.5,176.8c0,0,26.4,68.2,37.6,137.7c11.4,70.9,10.9,199.2,23.2,202.4c12.4,3.1,8.6,1,8.6,1
				s-2.3-77.5-3.5-103.2c-2.5-57.4,8.2-186.7,3.2-199.8C371.7,201.8,336.1,181.9,307.5,176.8z"/>
		</g>
	</g>
	<g>
		<g>
			<path class="st13" d="M305.3,166.1c0,4.2,0.3,8,1.3,10.5c0,0-7,27.2-61.9,3.5c0,0,10.9-40.5,0-74.4l61.9,38.4
				c0,0-0.8,6.1-1.1,13.2C305.3,160.2,305.2,163.2,305.3,166.1z"/>
		</g>
	</g>
	<g>
		<g>
			<path class="st17" d="M246.9,169.3c0,0,21.6,10.5,43.4,12.5l-10.6,22.6l-35-24.3L246.9,169.3z"/>
		</g>
	</g>
	<g>
		<g>
			<path class="st17" d="M290.3,181.8c0,0,15.2-5,15.1-12.5l2.1,7.5l-6.2,23.8L290.3,181.8z"/>
		</g>
	</g>
	<g>
		<g>
			<path class="st18" d="M336.6,55.4c0,0,11.1-23.7,3-41.1c-8-17.4-28.9-10.2-38.5-8.1c-9.6,2.1-27.6-19.1-59.6,6.7
				c-32,25.8-22.5,52.9-8.3,85.2c14.2,32.3,15.9,34.7,15.9,34.7s0.1-32.7,4-38.6c4.5-6.8,21.2-10.4,21.2-10.4s-12.6-17.3-0.3-23.7
				C286.5,53.7,312.1,65.7,336.6,55.4z"/>
		</g>
	</g>
	<g>
		<g>
			<path class="st13" d="M258.1,77.2c-1.7-4.9-10-10.6-14.2-1.3c-4.2,9.3,6.7,25.6,12.6,25.6C262.5,101.5,261.9,88.6,258.1,77.2z"/>
		</g>
	</g>
	<g>
		<g>
			<path class="st19" d="M290.3,181.8l7.9,13.7c0,0-3.7,4.2-15.5,2.4L290.3,181.8z"/>
		</g>
	</g>
	<g>
		<g>
			<path class="st19" d="M296.6,196.6c0,0,32.5,95.6,32.8,163.5c0.3,67.9-5.1,108.4-5.1,108.4l-7.2,13.4l-10.5-12.2
				c0,0,7.4-197.1-21.5-271.6C285.1,198.1,295.4,193.2,296.6,196.6z"/>
		</g>
	</g>
	<g>
		<g>
			<path class="st10" d="M164.1,223.8c23.8-9.7,48.4,23.2,61.6,56.1c13.2,32.9,38.3,92.8,38.3,92.8l175.8,28.5l2.5,33.4H237.2
				c0,0-78.2-140-83.6-157.4C148.2,259.8,147,230.8,164.1,223.8z"/>
		</g>
	</g>
	<g>
		<g>
			<rect x="380" y="434.7" class="st7" width="579.8" height="20"/>
		</g>
	</g>
	<rect x="719.8" y="85.2" class="st20" width="14" height="309.5"/>
	<g>
		<path class="st21" d="M754,434.7h104.5v-6.3H754c-5.4,0-9.4-1.3-11.6-3.8c-2.8-3.1-2.3-7.2-2.3-7.3l0-0.2l0-0.2v-135h-6.3v134.9
			c-0.1,1.3-0.4,7.2,3.8,11.9C741.1,432.7,746.6,434.7,754,434.7z"/>
	</g>
	<path class="st20" d="M610.6,423.6h111.3v11.1H604.3v-4.8C604.3,426.4,607.1,423.6,610.6,423.6z"/>
	<g>
		<g>
			<rect x="899.5" y="454.7" class="st22" width="16.5" height="542.6"/>
		</g>
		<g>
			<rect x="423.8" y="454.7" class="st22" width="16.5" height="542.6"/>
		</g>
	</g>
	<path class="st15" d="M278.5,434.7c-0.3,6.5-0.8,13.2-1.1,19.9l-0.1,0.1c0,0-22.9,3-42-5.7c-19.2-8.7-32.6-74.9-33.5-78.4
		c2,3.8,32.7,64.2,40.2,64.2C249.8,434.7,278.5,434.7,278.5,434.7z"/>
	<path class="st23" d="M305.5,157.3c-0.2,2.9-0.3,5.9-0.2,8.7c-43.7,0.7-44.4-24.3-44.4-24.3C267.7,159.9,305.5,157.3,305.5,157.3z"
		/>
	<g>
		
			<rect x="564.1" y="160.8" transform="matrix(0.6945 0.7195 -0.7195 0.6945 312.8008 -348.592)" class="st24" width="5.6" height="66.4"/>
		<polygon class="st5" points="588.8,169 597.8,164.2 592.7,173 		"/>
	</g>
	<g>
		<g>
			<g>
				<g>
					<path class="st25" d="M568.3,197c0,0-22.7,4.9-22.6,9c0.1,4.1,2.4,5.4,2.4,5.4l-8.7,6.6c0,0-3.6,7.9,5,9.6c0,0-4.1,7,4.5,7.5
						c0,0-0.9,5.8,3,6.9c3.9,1,18.4-2.8,18.4-2.8s2.8-2.3,0.7-8.2c0,0,3.8-4.5,1.3-9.8c0,0,2.6-4.1-0.2-9.8c0,0,5.1-9.7-1.6-14.7
						C570.7,196.6,569.3,196.8,568.3,197z"/>
				</g>
			</g>
		</g>
	</g>
	<g>
		<g>
			<g>
				<g>
					<path class="st5" d="M530.2,200.9c0,0,14.9,4.8,21.8,11.4c1.6,1.5,2.8,3.3,2.1,5.5c-0.7,2.2-4.6,4-11.1,2.3
						c-6.6-1.7-15.9-0.5-15.9-0.5S520.9,215.7,530.2,200.9z"/>
				</g>
			</g>
		</g>
	</g>
	<path class="st26" d="M549.3,706.5c0,0-13.9-86.8-14.6-90.4c-0.7-3.5-14.9-16.2-82.6-38.3c0,0,75.2,14.6,95,27.5
		C562.2,615.1,549.3,706.5,549.3,706.5z"/>
	<g>
		<path class="st27" d="M832.5,434.7c7.4-3.1,19.4-38.2,25.2-56.3c2-6.4,3.3-10.8,3.3-10.8h-67.9c5.9,41.9,20.1,67.1,20.1,67.1
			H832.5z"/>
		<path class="st28" d="M838,346.7c0-2.4,10.9-12.7,16.4-19.3c5.5-6.7-2.1-19.3-2.1-19.3c-24.3,10.1-20.1,38.7-20.1,38.7
			S838,349.1,838,346.7z"/>
		<path class="st28" d="M824.1,347.8h2.9c0,0,2.1-49.4-15.9-56.1c-18-6.7-18-20.1-18-20.1s-5.5,18.5,3.4,28.1
			c8.8,9.6,18.9,21,17.2,30.2C812,339.1,824.1,347.8,824.1,347.8z"/>
		<path class="st29" d="M857.7,378.4c2-6.4,3.3-10.8,3.3-10.8h-67.9c5.9,41.9,20.1,67.1,20.1,67.1h4.4
			C816.8,395.4,842.7,382.5,857.7,378.4z"/>
		<polygon class="st30" points="861,346.7 792.6,346.7 788.7,367.6 863.8,367.6 		"/>
	</g>
</g>
</svg>
